<?xml version="1.0" encoding="UTF-8"?>
<svg width="120px" height="24px" viewBox="0 0 120 24" version="1.1" xmlns="http://www.w3.org/2000/svg" xmlns:xlink="http://www.w3.org/1999/xlink">
    <title>binance-logo</title>
    <g id="页面-1" stroke="none" stroke-width="1" fill="none" fill-rule="evenodd">
        <g id="PC-币安" transform="translate(-922.000000, -179.000000)" fill="#FCD535" fill-rule="nonzero">
            <g id="binance-logo" transform="translate(922.000000, 179.000000)">
                <polygon id="路径" points="7.34062627 10.0844887 12.001836 5.42511862 16.6649256 10.0882887 19.3756214 7.37572936 12.001836 0 4.62805047 7.37380939"></polygon>
                <polygon id="路径" points="0 12.00038 2.71157583 9.28882067 5.42315165 12.00038 2.71157583 14.7119793"></polygon>
                <polygon id="路径" points="7.34062627 13.9154713 12.001836 18.5767213 16.6649256 13.9135913 19.3774614 16.6223907 19.3755814 16.6242706 12.001796 24 4.62805047 16.6280306 4.62425056 16.6242306"></polygon>
                <polygon id="路径" points="18.5759204 12.00106 21.2874962 9.28946066 23.999032 12.00106 21.2874962 14.7126193"></polygon>
                <polygon id="路径" points="14.7522909 11.99906 12.001796 9.2466213 9.96784409 11.2806308 9.73280966 11.5137873 9.25134105 11.9952601 9.24754114 11.99906 9.25134105 12.0047399 12.001796 14.7533787 14.7522909 12.00094 14.7541708 11.99906 14.7522909 11.99906"></polygon>
                <g id="编组" transform="translate(28.229772, 5.602818)">
                    <path d="M0,0.212814848 L5.89902039,0.212814848 C7.36242576,0.212814848 8.46943956,0.591969161 9.22006179,1.35019779 C9.79156827,1.9161893 10.1060408,2.69177766 10.0901212,3.4960056 L10.0901212,3.53200506 C10.0952011,3.85800017 10.0498022,4.1828353 9.95556438,4.49495062 C9.87156637,4.76366659 9.74968926,5.01898276 9.59349295,5.25317924 C9.4478964,5.47405593 9.27178057,5.67317294 9.07030534,5.84461037 C8.87346999,6.01400783 8.6578751,6.16032564 8.42772054,6.28056383 C9.09150483,6.51176036 9.68837071,6.90231451 10.1659594,7.41794677 C10.5880694,7.89817957 10.7991044,8.56164962 10.7991044,9.40831692 L10.7991044,9.44431638 C10.8110641,9.97310844 10.6960269,10.4970606 10.4635524,10.9721735 C10.2383177,11.4098869 9.90812551,11.7850413 9.50249511,12.0640371 C9.04390596,12.3714725 8.53331804,12.5930691 7.99553077,12.7180273 C7.35658589,12.869545 6.7016014,12.9427439 6.04497694,12.935984 L0,12.935984 L0,0.212814848 Z M5.30763439,5.35745768 C5.81798231,5.38209731 6.32589029,5.27229896 6.78047953,5.03898246 C7.14211097,4.82774562 7.35234599,4.4293516 7.3226267,4.01155787 L7.3226267,3.97555841 C7.34170625,3.59204416 7.16371046,3.22536966 6.85059787,3.00309299 C6.53596532,2.77941635 6.08161607,2.66757803 5.48771012,2.66757803 L2.72773544,2.66757803 L2.72773544,5.35741768 L5.30763439,5.35741768 L5.30763439,5.35745768 Z M6.05257676,10.4849808 C6.56104472,10.5134603 7.06715274,10.3971421 7.51214221,10.1494658 C7.86521386,9.9225892 8.06704908,9.52183521 8.03912974,9.10308149 L8.03912974,9.06708203 C8.05300941,8.67028799 7.86905377,8.29249365 7.54818136,8.05865716 C7.22218907,7.80590095 6.69520155,7.67950285 5.96729877,7.67950285 L2.72777544,7.67950285 L2.72777544,10.4849808 L6.05257676,10.4849808 L6.05257676,10.4849808 Z" id="形状"></path>
                    <polygon id="路径" points="14.3134612 0.212814848 17.113235 0.212814848 17.113235 12.9397839 14.3134612 12.9397839"></polygon>
                    <polygon id="路径" points="21.3498147 0.212814848 23.9315936 0.212814848 29.8988524 8.04537736 29.8988524 0.212814848 32.662587 0.212814848 32.662587 12.9397839 30.2798834 12.9397839 24.1174292 4.8494253 24.1174292 12.9397839 21.3498947 12.9397839 21.3498947 0.212814848"></polygon>
                    <path d="M41.1395464,0.121816213 L43.7175254,0.121816213 L49.1710763,12.9397439 L46.2481455,12.9397439 L45.084253,10.0850268 L39.7027004,10.0850268 L38.5388079,12.9397439 L35.6841155,12.9397439 L41.1395464,0.121816213 Z M44.0852766,7.61318384 L42.3906368,3.48456577 L40.7035567,7.61318384 L44.0852766,7.61318384 Z" id="形状"></path>
                    <polygon id="路径" points="52.1983646 0.212814848 54.7801035 0.212814848 60.7435624 8.04537736 60.7435624 0.212814848 63.507337 0.212814848 63.507337 12.9397839 61.1245934 12.9397839 54.9620992 4.8494253 54.9620992 12.9397839 52.1983646 12.9397839"></polygon>
                    <path d="M73.5841385,13.1634606 C72.6918396,13.1710605 71.8072606,12.9983031 70.9834401,12.6554282 C69.4165571,12.0084779 68.1773465,10.7562567 67.5467614,9.1827203 C67.2174092,8.36805252 67.0506131,7.49678559 67.055813,6.61799877 L67.055813,6.58199931 C67.0411734,4.84986529 67.7076376,3.18129032 68.9116091,1.935949 C69.5039951,1.32759813 70.2132183,0.845285361 70.9967197,0.51805027 C71.8490196,0.165015565 72.7641579,-0.0110617935 73.6865361,0.000538032526 C74.2321232,-0.00354190628 74.7768303,0.0453373605 75.3129376,0.146495843 C75.7716467,0.233254542 76.2201561,0.367292531 76.6512259,0.546449844 C77.0423767,0.711087374 77.4142879,0.918364265 77.7601197,1.16440057 C78.0976317,1.40439697 78.4146242,1.67195296 78.7078972,1.96434858 L76.9279394,4.01915775 C76.4731101,3.59956405 75.9628822,3.24428938 75.4114953,2.96333359 C74.8698681,2.70429748 74.2754821,2.57453942 73.6751764,2.58417928 C72.6645203,2.57337944 71.6979831,2.99733308 71.0213592,3.74808182 C70.689727,4.11827627 70.4300132,4.54706983 70.2555373,5.01242285 C70.0729416,5.50425548 69.9810638,6.02512766 69.9845037,6.54975979 L69.9845037,6.58579925 C69.9827037,7.1096714 70.0745016,7.6296236 70.2555373,8.12121622 C70.4278132,8.58828922 70.6848471,9.01948275 71.0137593,9.39315714 C71.6851435,10.1534257 72.6533205,10.5849793 73.6675765,10.5759794 C74.3058814,10.5960991 74.9393064,10.4587412 75.5119329,10.1760254 C76.05716,9.87890986 76.5611881,9.51187536 77.0113374,9.08416178 L78.7931752,10.8849748 C78.4785827,11.2264496 78.1382707,11.5433249 77.7752393,11.8327605 C77.4186078,12.1147563 77.0313369,12.3557527 76.6208666,12.5511898 C76.183357,12.7571067 75.7225679,12.9092244 75.2484591,13.004223 C74.7005921,13.1140613 74.1428853,13.1674205 73.5841385,13.1634606 L73.5841385,13.1634606 Z" id="路径"></path>
                    <polygon id="路径" points="82.097137 0.212814848 91.6754703 0.212814848 91.6754703 2.70361749 84.8514318 2.70361749 84.8514318 5.28537876 90.8604496 5.28537876 90.8604496 7.7761814 84.8609116 7.7761814 84.8609116 10.4489413 91.7702281 10.4489413 91.7702281 12.9397439 82.1028569 12.9397439"></polygon>
                </g>
            </g>
        </g>
    </g>
</svg>